<svg xmlns="http://www.w3.org/2000/svg" viewBox="0 0 24 24" fill="none" stroke="#4f46e5" stroke-width="2" stroke-linecap="round" stroke-linejoin="round">
  <path d="M14 2H6a2 2 0 0 0-2 2v16a2 2 0 0 0 2 2h12a2 2 0 0 0 2-2V8z"></path>
  <path d="M14 2v6h6"></path>
  <path d="M16 13H8"></path>
  <path d="M16 17H8"></path>
  <path d="M10 9H8"></path>
  <path d="M21 11.5a1.5 1.5 0 0 0-3 0 1.5 1.5 0 0 1-3 0 1.5 1.5 0 0 0 3 0 1.5 1.5 0 0 1 3 0Z" fill="#4f46e5" stroke="none"></path>
  <path d="M19.5 8a1 1 0 0 0-2 0 1 1 0 0 1-2 0 1 1 0 0 0 2 0 1 1 0 0 1 2 0Z" fill="#4f46e5" stroke="none"></path>
</svg>
